<svg width="168" height="122" viewBox="0 0 168 122" fill="none" xmlns="http://www.w3.org/2000/svg">
<g clip-path="url(#clip0)">
<path fill-rule="evenodd" clip-rule="evenodd" d="M8.09454 46.2075C11.9891 50.0962 18.1745 50.4775 22.3745 46.97C58.0364 17.69 109.811 17.69 145.549 46.8937C149.825 50.4012 156.087 50.0962 159.982 46.2075C164.487 41.7087 164.182 34.2362 159.218 30.195C115.615 -5.41375 52.5382 -5.41375 8.85818 30.195C3.89455 34.16 3.51273 41.6325 8.09454 46.2075ZM67.3527 105.377L78.5782 116.586C81.5564 119.56 86.3673 119.56 89.3455 116.586L100.571 105.377C104.16 101.794 103.396 95.6175 98.8146 93.2537C89.4982 88.45 78.3491 88.45 68.9564 93.2537C64.6036 95.6175 63.7636 101.794 67.3527 105.377ZM38.8691 76.9362C42.6109 80.6725 48.4909 81.0538 52.8436 77.9275C71.4764 64.7363 96.5236 64.7363 115.156 77.9275C119.509 80.9775 125.389 80.6725 129.131 76.9362L129.207 76.86C133.789 72.285 133.484 64.5075 128.215 60.7712C101.945 41.785 66.1309 41.785 39.7855 60.7712C34.5164 64.5837 34.2109 72.285 38.8691 76.9362Z" fill="white"/>
</g>
<defs>
<clipPath id="clip0">
<rect width="168" height="122" fill="white"/>
</clipPath>
</defs>
</svg>
